<svg version="1.1" id="Layer_1" xmlns="http://www.w3.org/2000/svg" xmlns:xlink="http://www.w3.org/1999/xlink" x="0px" y="0px"
	 width="100%" viewBox="0 0 2190 1642" enable-background="new 0 0 2190 1642" xml:space="preserve">
<!--D-->
<path fill="#FFFFFF" opacity="1.000000" stroke="none" 
	d="
M2191.000000,581.531311 
	C2190.333984,582.653564 2189.150635,583.254578 2189.078125,583.968384 
	C2187.375488,600.740845 2183.513916,617.000732 2178.056885,632.937195 
	C2171.208740,652.935608 2161.142578,671.030029 2148.016113,687.652466 
	C2130.182617,710.235657 2107.660889,726.622803 2082.031738,738.896240 
	C2062.578613,748.212036 2041.990112,754.635681 2020.864624,758.809631 
	C2007.808472,761.389282 1994.464966,762.768860 1981.183105,763.881470 
	C1966.893188,765.078552 1952.526001,765.865662 1938.189819,765.909241 
	C1871.037842,766.113525 1803.884888,766.000000 1736.366211,766.000000 
	C1736.366211,618.436951 1736.366211,470.934937 1736.366211,323.000031 
	C1738.136719,323.000031 1739.920654,323.000031 1741.704590,323.000031 
	C1811.690552,323.000031 1881.678589,322.689697 1951.660889,323.197235 
	C1971.553589,323.341492 1991.424438,325.340515 2011.175903,328.792145 
	C2039.127686,333.676727 2066.038574,341.460327 2090.858887,355.184540 
	C2102.519775,361.632416 2113.510254,369.524445 2124.032227,377.750153 
	C2144.543213,393.784851 2159.370361,414.529266 2170.366943,437.949097 
	C2177.684326,453.532959 2183.192627,469.806732 2185.986816,486.882294 
	C2187.086426,493.604492 2188.003418,500.356537 2189.081543,507.082428 
	C2189.170654,507.638367 2189.858643,508.098328 2190.634277,508.301453 
	C2191.000000,532.354248 2191.000000,556.708435 2191.000000,581.531311 
M1908.000000,493.500000 
	C1908.000000,538.901001 1908.000000,584.302063 1908.000000,629.004272 
	C1922.868774,629.004272 1937.271851,629.650696 1951.592529,628.840393 
	C1969.420410,627.831665 1984.098267,619.707092 1996.125732,606.462219 
	C2009.746704,591.462524 2016.255981,573.506165 2017.863281,553.780029 
	C2019.157837,537.893005 2017.152710,522.204468 2010.974609,507.308655 
	C2003.678223,489.717346 1992.647827,475.329285 1975.196655,466.684418 
	C1967.023560,462.635620 1958.442261,459.974213 1949.198242,459.975861 
	C1935.535767,459.978333 1921.873169,459.976501 1908.000000,459.976501 
	C1908.000000,470.558685 1908.000000,481.529358 1908.000000,493.500000 
z"/>
<!--End D-->
<!--One-->
<path fill="#FFFFFF" opacity="1.000000" stroke="none" 
	d="
M789.875183,844.980469 
	C791.549866,836.770752 792.847046,828.461792 794.975769,820.371521 
	C799.793579,802.061401 804.017151,783.503906 810.317810,765.696472 
	C819.768799,738.985413 830.398376,712.666870 841.281982,686.495483 
	C849.224426,667.396545 858.275818,648.753174 867.030273,629.998901 
	C875.861755,611.079590 884.935364,592.273132 893.905640,573.418640 
	C904.602844,550.934387 915.569885,528.573730 925.932312,505.936249 
	C938.075073,479.409393 950.296265,452.888550 961.318665,425.889557 
	C968.267212,408.869476 973.097778,390.983398 978.810120,373.463501 
	C979.139526,372.453156 978.852844,371.241913 978.852844,371.001221 
	C963.424683,374.017059 948.191956,377.529022 932.778076,379.824249 
	C922.083740,381.416779 911.111450,382.182526 900.313782,381.818604 
	C879.576660,381.119659 860.077942,375.664429 843.823364,362.048920 
	C840.392822,359.175415 838.377502,354.520233 835.980042,350.524048 
	C830.258545,340.987396 825.658508,331.002258 823.388794,319.981323 
	C822.464966,315.495453 824.058167,312.500305 827.262085,309.996094 
	C836.672729,302.640656 848.077393,299.905487 859.299438,297.491150 
	C879.437683,293.158630 897.005554,283.538330 913.360229,271.825195 
	C926.984314,262.067749 939.735168,251.022049 952.369080,239.971146 
	C964.058655,229.746368 975.558533,219.214020 986.268311,207.983917 
	C998.250427,195.419739 1009.880981,182.409714 1020.538574,168.717331 
	C1039.736938,144.052185 1058.569824,119.067459 1076.564575,93.518509 
	C1083.425659,83.777328 1087.831421,72.240997 1092.869629,61.298752 
	C1098.965942,48.058155 1104.481689,34.551392 1110.377563,21.216778 
	C1113.296753,14.614514 1116.504639,8.139927 1119.291016,1.303797 
	C1125.687622,1.000000 1132.375366,1.000000 1139.531494,0.999989 
	C1140.312256,1.655764 1140.473999,2.733333 1140.958374,2.905985 
	C1155.206177,7.985030 1163.280762,19.048426 1168.926758,32.194721 
	C1174.764160,45.787251 1177.373047,60.298988 1178.780396,74.882782 
	C1179.461792,81.943787 1177.926880,89.235016 1177.239136,96.407005 
	C1176.601196,103.058815 1175.989014,109.727440 1174.951538,116.323547 
	C1172.840454,129.746918 1170.867188,143.213913 1168.078491,156.503738 
	C1163.717285,177.288849 1159.106201,198.038055 1153.890381,218.622467 
	C1149.086060,237.583496 1143.523560,256.359985 1137.969849,275.121521 
	C1131.829956,295.863281 1125.914429,316.701508 1118.834839,337.128143 
	C1107.772949,369.045013 1095.702393,400.610779 1084.264404,432.399200 
	C1071.689697,467.346741 1059.393188,502.394287 1046.888306,537.367065 
	C1037.994385,562.240784 1028.870483,587.032410 1020.004333,611.915955 
	C1009.577515,641.179626 999.136658,670.440674 989.045410,699.820801 
	C981.292175,722.393921 973.664001,745.026184 966.726562,767.858948 
	C959.685242,791.033325 953.342468,814.428406 947.137329,837.844421 
	C944.586975,847.468384 943.197144,857.399902 941.017761,867.955933 
	C940.255188,871.813599 939.410461,874.896851 939.319824,878.002136 
	C939.076477,886.335388 939.155823,894.678101 939.106995,903.017029 
	C940.698303,916.428223 941.476074,930.208984 949.213135,941.806458 
	C951.857727,945.770569 957.027832,948.049866 962.053833,951.865479 
	C962.662415,959.844421 957.391235,965.650269 949.699890,970.033875 
	C937.761353,976.838318 924.721130,980.172974 911.262268,981.932922 
	C903.321411,982.971436 895.302429,983.705627 887.300476,983.928894 
	C865.073120,984.549316 845.088684,977.655945 826.762146,965.304749 
	C807.775085,952.508484 797.380676,934.231079 793.117432,912.279724 
	C791.108826,901.937500 790.335327,891.355469 789.293701,880.195801 
	C789.744080,870.250488 789.922058,860.991638 790.047791,851.732178 
	C790.078369,849.482849 789.937317,847.231079 789.875183,844.980469 
z"/>
<!--End One-->
<!--C-->
<path fill="#FFFFFF" opacity="1.000000" stroke="none" 
	d="
M1250.000000,567.056396 
	C1249.666748,555.334229 1248.583252,544.044128 1249.165283,532.840576 
	C1250.192993,513.059021 1252.772339,493.425873 1258.284546,474.280823 
	C1262.831787,458.488037 1268.844482,443.323669 1276.597778,428.820404 
	C1284.428345,414.172699 1294.110352,400.917725 1304.973511,388.358643 
	C1318.037964,373.254669 1333.467163,361.156342 1350.102783,350.390533 
	C1371.338135,336.648041 1394.394409,327.122803 1418.871094,321.051147 
	C1434.502563,317.173676 1450.295898,314.148560 1466.514404,313.957520 
	C1473.935547,313.870117 1481.367676,312.849030 1488.766479,313.096497 
	C1506.530273,313.690613 1524.100098,315.707581 1541.533447,319.651154 
	C1561.560059,324.181366 1580.728149,330.909698 1598.945923,340.118317 
	C1616.324707,348.902863 1632.209961,359.956512 1646.802979,373.072754 
	C1667.302734,391.498322 1683.264648,413.127197 1695.225952,437.759888 
	C1704.391235,456.634552 1710.783569,476.476776 1714.011841,497.276093 
	C1715.055054,503.997467 1716.210083,510.701508 1717.410278,518.000000 
	C1715.436035,518.000000 1713.982910,518.000000 1712.529785,518.000000 
	C1660.201050,518.000000 1607.872314,517.979248 1555.543701,518.051086 
	C1552.389893,518.055420 1551.083618,517.329468 1549.803223,513.970154 
	C1540.838257,490.449799 1524.937134,474.553040 1499.326172,469.989471 
	C1479.618164,466.477814 1462.050293,470.901581 1446.589722,483.842010 
	C1433.191406,495.056366 1426.296021,509.643616 1422.936890,526.447327 
	C1418.668701,547.798462 1420.841309,568.402893 1431.304321,587.380005 
	C1440.970581,604.912048 1455.856445,616.463806 1476.140381,620.004150 
	C1494.099365,623.138733 1510.612915,619.889282 1525.522705,609.095642 
	C1538.147583,599.955994 1546.205322,587.678772 1551.098633,573.055603 
	C1551.518799,571.800232 1553.317505,571.002014 1554.492676,570.011414 
	C1554.590088,569.929199 1554.816772,570.000122 1554.983398,570.000183 
	C1608.645142,570.011780 1662.307007,570.023193 1715.968750,570.042419 
	C1716.118164,570.042480 1716.267456,570.155884 1716.940552,570.428284 
	C1716.297485,576.483337 1716.257202,582.850586 1714.850464,588.900146 
	C1711.578247,602.972717 1708.527588,617.199280 1703.780029,630.802612 
	C1696.432373,651.856384 1685.869873,671.330261 1671.761597,688.861145 
	C1653.295166,711.807556 1631.543091,730.625671 1605.687256,744.841248 
	C1585.993042,755.669189 1565.183350,763.525146 1543.425903,768.657227 
	C1532.097534,771.329224 1520.413086,772.986877 1508.797485,773.821716 
	C1493.934082,774.889893 1478.936279,775.509338 1464.072266,774.779602 
	C1446.777588,773.930603 1429.690796,770.892578 1412.922485,766.112427 
	C1396.659790,761.476379 1380.830200,755.774109 1365.912354,747.894470 
	C1350.891602,739.960449 1336.817017,730.565796 1323.811157,719.461853 
	C1300.746338,699.769775 1283.157471,676.050232 1270.395142,648.727417 
	C1262.696289,632.244995 1256.985474,615.009644 1254.045410,596.992004 
	C1252.449219,587.210938 1251.332886,577.351501 1250.000000,567.056396 
z"/>
<!--End C-->
<!--Body-->
<path fill="#FFFFFF" opacity="1.000000" stroke="none" 
	d="
M1384.030884,1031.111206 
	C1388.161865,1032.406616 1392.411377,1033.415039 1396.396973,1035.062012 
	C1403.044922,1037.809082 1409.523926,1040.964600 1416.455444,1044.121826 
	C1411.330566,1055.061768 1406.521729,1065.520630 1401.546143,1075.899780 
	C1394.734985,1090.108643 1388.243896,1104.496216 1380.807251,1118.374023 
	C1369.946777,1138.641235 1358.732544,1158.739990 1346.995483,1178.510742 
	C1334.760010,1199.120361 1322.314331,1219.654663 1308.879272,1239.489380 
	C1294.557129,1260.633667 1279.428467,1281.276123 1263.792603,1301.472168 
	C1250.500977,1318.640381 1236.476440,1335.306274 1221.886597,1351.387207 
	C1205.068970,1369.923462 1187.755493,1388.071533 1169.754395,1405.453003 
	C1155.033203,1419.667480 1139.372314,1432.987061 1123.439819,1445.850952 
	C1096.649048,1467.481812 1068.852661,1487.832886 1038.888306,1504.905884 
	C1017.094910,1517.323608 995.139160,1529.568848 972.580261,1540.496338 
	C953.583069,1549.698486 933.944336,1557.854614 913.988281,1564.728027 
	C889.448730,1573.180176 864.422729,1580.333984 839.341064,1587.056763 
	C823.477539,1591.308716 807.168213,1593.965698 790.984497,1596.932617 
	C778.225098,1599.271851 765.389038,1601.288818 752.517395,1602.889038 
	C743.077942,1604.062622 733.491699,1604.018311 724.030151,1605.057373 
	C694.070374,1608.347290 664.013855,1607.033569 634.012329,1606.785767 
	C617.162048,1606.646484 600.323975,1604.408325 583.491394,1602.985229 
	C573.230835,1602.117676 562.951233,1601.299194 552.752747,1599.921021 
	C540.389160,1598.250244 528.099243,1596.030273 515.782898,1594.014648 
	C503.637970,1592.026855 491.421753,1590.375244 479.379486,1587.885864 
	C465.677643,1585.053589 452.009888,1581.896118 438.547821,1578.098389 
	C412.306702,1570.695557 385.983276,1563.452271 360.145782,1554.794556 
	C340.893005,1548.343262 322.012207,1540.500732 303.583038,1531.947754 
	C283.052338,1522.419434 262.786621,1512.132935 243.217560,1500.777222 
	C226.660294,1491.169189 210.956146,1479.986206 195.425201,1468.739746 
	C174.582535,1453.646851 155.338333,1436.523193 138.172531,1417.382080 
	C124.484161,1402.118408 111.097160,1386.366211 99.491043,1369.512451 
	C86.844368,1351.147583 75.313103,1331.814331 65.260094,1311.910889 
	C50.248009,1282.189087 39.130371,1250.837769 33.031891,1217.948608 
	C30.344637,1203.456177 28.273651,1188.847900 26.010227,1174.278687 
	C22.554012,1152.031494 23.660828,1129.590088 24.294916,1107.281128 
	C24.712883,1092.575684 27.964781,1077.951904 29.925768,1063.288818 
	C32.545013,1043.703613 38.243641,1024.922241 46.165409,1006.952393 
	C54.228683,988.661499 63.737350,971.004272 76.322243,955.335693 
	C83.822578,945.997559 91.674370,936.832947 100.235886,928.479675 
	C115.618019,913.471802 132.797409,900.623108 151.486954,889.960266 
	C178.575180,874.505737 205.776321,859.248108 232.990799,844.016357 
	C263.483002,826.950134 293.450134,809.007446 322.021729,788.888123 
	C338.187836,777.504456 353.947968,765.481934 369.288818,753.006653 
	C383.536835,741.420044 397.093170,728.969910 410.745117,716.668152 
	C418.866364,709.350159 427.080841,702.031799 434.380432,693.927307 
	C449.727997,676.887451 464.667542,659.470764 479.466339,641.948425 
	C498.179077,619.791809 514.043640,595.556885 528.578735,570.571716 
	C543.436768,545.031311 557.155518,518.767395 566.935181,490.769836 
	C575.652039,465.815063 584.080688,440.732452 591.610352,415.401184 
	C595.547363,402.156006 597.604187,388.309814 599.912537,374.634186 
	C602.318176,360.381927 603.986816,346.005707 606.033630,331.691711 
	C606.237183,330.268280 606.829590,328.900421 607.501038,326.628723 
	C618.344238,327.637360 629.505615,328.675568 641.278015,329.770630 
	C640.471497,338.279022 639.994141,346.266968 638.894104,354.168213 
	C637.532837,363.945740 636.004333,373.726593 633.926880,383.372192 
	C629.724609,402.883270 626.070435,422.590546 620.412720,441.690430 
	C613.185608,466.088440 605.275940,490.405029 595.658325,513.938538 
	C586.934204,535.285583 576.234253,555.925720 565.094360,576.155579 
	C554.630615,595.157532 542.926086,613.531494 530.873230,631.584839 
	C521.711670,645.307434 511.308289,658.218445 501.174591,671.270935 
	C480.126190,698.381775 455.843048,722.547363 431.068512,746.136414 
	C416.526367,759.982666 401.042511,772.968018 385.089081,785.173096 
	C362.750214,802.263367 339.936584,818.794067 316.644714,834.557373 
	C299.621155,846.078491 281.653992,856.244507 263.831665,866.536987 
	C237.799057,881.570984 211.373016,895.926025 185.401871,911.063232 
	C170.823181,919.560303 156.173798,928.193176 142.763046,938.357117 
	C131.706238,946.737122 122.129036,957.173706 112.427101,967.212036 
	C98.688354,981.427124 88.788994,998.354553 80.496758,1016.141479 
	C72.600662,1033.078613 67.066971,1050.802490 63.883667,1069.320557 
	C61.133121,1085.321289 58.879112,1101.300781 58.982471,1117.567505 
	C59.065102,1130.572021 58.089958,1143.654785 59.187771,1156.566528 
	C61.574883,1184.642212 66.485435,1212.285522 74.582458,1239.416748 
	C82.387886,1265.570557 92.858772,1290.493896 105.880501,1314.368652 
	C117.748566,1336.128052 131.346298,1356.815308 147.934830,1375.291870 
	C160.427933,1389.206909 173.010086,1403.155273 186.688629,1415.866455 
	C207.623138,1435.320068 230.462982,1452.536865 255.216339,1466.918701 
	C273.283142,1477.415527 291.557007,1487.652954 310.294678,1496.876221 
	C340.542389,1511.765137 372.018433,1523.827637 404.500763,1532.858887 
	C430.971283,1540.218628 457.735809,1546.551880 484.471222,1552.914795 
	C497.813080,1556.090210 511.336517,1558.578369 524.862244,1560.881592 
	C535.280579,1562.655640 545.828857,1563.670898 556.322754,1564.996338 
	C569.571167,1566.669678 582.817078,1568.365967 596.076965,1569.944336 
	C600.473816,1570.467773 604.905151,1570.772827 609.330017,1570.974731 
	C618.412048,1571.389160 627.498535,1571.732422 636.586487,1571.984863 
	C650.670715,1572.375977 664.762451,1573.062378 678.842102,1572.890991 
	C693.519531,1572.712524 708.216431,1572.046875 722.849548,1570.893066 
	C737.970825,1569.700684 753.132202,1568.309814 768.083252,1565.839111 
	C787.979797,1562.551147 807.859436,1558.824951 827.434448,1554.016968 
	C848.761047,1548.778931 869.957703,1542.768555 890.787292,1535.824097 
	C908.842102,1529.804932 926.517761,1522.496216 943.966492,1514.856445 
	C960.131775,1507.778564 976.092346,1500.089233 991.577209,1491.633057 
	C1018.740845,1476.798828 1045.175537,1460.690674 1069.721436,1441.725952 
	C1087.083618,1428.311279 1104.969604,1415.439697 1121.269653,1400.818237 
	C1143.117920,1381.219971 1164.025146,1360.525146 1184.626831,1339.602417 
	C1197.032715,1327.002930 1208.540283,1313.438110 1219.640991,1299.654175 
	C1233.874878,1281.979736 1247.750000,1263.974976 1260.941772,1245.513794 
	C1275.471924,1225.179932 1289.384888,1204.381714 1302.932617,1183.376831 
	C1312.508423,1168.529785 1321.481812,1153.248291 1329.916870,1137.722168 
	C1343.579346,1112.573730 1356.578979,1087.065186 1370.292969,1061.213867 
	C1375.161743,1050.849854 1379.596313,1040.980469 1384.030884,1031.111206 
z"/>
<!--End Body-->
<!--Neck-->
<path fill="#231F20" opacity="1.000000" stroke="none" 
	d="
M789.422485,844.986938 
	C789.937317,847.231079 790.078369,849.482849 790.047791,851.732178 
	C789.922058,860.991638 789.744080,870.250488 789.280640,879.752747 
	C774.444153,879.021484 759.912354,878.046692 745.380432,877.073914 
	C744.882202,877.040588 744.382751,877.012512 743.883606,877.007019 
	C713.432617,876.670349 682.981445,876.087463 652.530823,876.113647 
	C638.620789,876.125610 624.691589,877.060486 610.807373,878.074524 
	C591.516785,879.483459 572.190430,880.795471 553.005798,883.170105 
	C524.829773,886.657715 496.760223,891.012024 468.664551,895.128357 
	C466.646057,895.424072 464.409943,896.374329 462.910736,897.725586 
	C453.541046,906.170837 444.516022,915.002197 435.065826,923.353699 
	C420.167786,936.519775 405.500885,950.017029 389.862244,962.257629 
	C370.964325,977.049500 351.602997,991.349243 331.636292,1004.652405 
	C301.028748,1025.045166 268.698242,1042.316650 233.614700,1054.004517 
	C216.444839,1059.724609 199.038589,1063.727661 180.896179,1065.240723 
	C164.277939,1066.626831 148.387283,1064.953003 133.512970,1057.624878 
	C119.001228,1050.475342 110.930954,1038.137939 110.166855,1022.002502 
	C109.577560,1009.558594 114.303833,998.304077 121.377762,988.159363 
	C136.673294,966.224121 158.003983,951.578979 181.029099,938.972290 
	C214.019547,920.909180 249.280518,908.814941 285.655518,900.026733 
	C332.583710,888.689026 379.689026,878.082275 426.744354,867.275146 
	C433.012909,865.835449 439.462219,865.196533 445.768280,863.897827 
	C447.394165,863.562927 449.087952,862.405334 450.253601,861.160400 
	C467.957428,842.252625 485.843170,823.505432 503.158966,804.246460 
	C531.752686,772.443909 558.407898,739.046326 582.139709,703.449402 
	C598.137878,679.452698 613.948425,655.274841 628.538208,630.412354 
	C640.972961,609.222290 652.189392,587.247681 662.804260,565.074097 
	C683.194824,522.479797 699.150818,478.177765 709.661316,432.103729 
	C714.025879,412.971436 717.061035,393.493744 719.783386,374.044708 
	C721.431213,362.271576 721.479187,350.258453 721.943359,338.341400 
	C722.244446,330.610901 721.931396,322.858459 722.012451,315.117096 
	C722.286133,288.983429 718.322815,263.341492 712.960510,237.881485 
	C707.149902,210.292969 697.969482,183.889603 684.522339,159.040268 
	C677.395691,145.870636 668.816223,133.767792 659.024597,122.398903 
	C638.949097,99.089737 614.146362,83.074074 584.769592,74.650124 
	C572.636475,71.170868 559.833801,69.917206 547.275269,68.059555 
	C533.355347,66.000534 519.644531,68.175224 505.968048,70.809830 
	C487.162994,74.432373 472.817169,84.636932 461.983948,100.093475 
	C451.622925,114.876266 446.463562,131.911057 440.916443,148.816498 
	C438.354095,156.625595 434.740417,164.089722 430.990906,171.713501 
	C421.576996,164.760254 412.775635,157.803757 403.974274,150.847260 
	C410.100586,131.211578 415.695190,111.395638 425.426056,93.078911 
	C442.113739,61.667191 467.461395,42.374474 502.744537,35.828812 
	C519.756836,32.672726 536.838196,32.137333 553.829773,33.251720 
	C576.743164,34.754486 598.798279,40.659473 619.810852,50.327137 
	C644.298523,61.593636 665.438171,77.347252 683.537170,97.149155 
	C695.417908,110.147659 705.381897,124.615845 714.003601,139.991928 
	C729.550171,167.718140 739.904175,197.433273 746.442444,228.376663 
	C750.257690,246.433365 752.733093,264.823395 754.835083,283.175262 
	C756.378052,296.646454 756.620056,310.292664 756.936157,323.872650 
	C757.465454,346.611053 755.878052,369.254303 751.992737,391.666504 
	C748.580750,411.348969 745.445312,431.134277 740.756836,450.528290 
	C732.879089,483.114868 722.229675,514.908264 708.990662,545.724060 
	C699.884766,566.919495 690.730225,588.188538 679.922607,608.535034 
	C665.618408,635.464417 650.440613,662.003845 634.219299,687.819214 
	C619.075134,711.920532 602.494202,735.160278 585.750000,758.200989 
	C574.085815,774.251221 561.312927,789.520752 548.605530,804.781189 
	C534.948669,821.181824 520.789612,837.164124 506.358551,853.898438 
	C512.891357,853.058228 518.938477,852.238647 524.996643,851.510925 
	C534.998352,850.309387 544.997925,849.078430 555.015442,848.022034 
	C567.992981,846.653564 580.982727,845.395813 593.976318,844.188599 
	C599.581116,843.667908 605.203369,843.258362 610.827148,843.035583 
	C621.775391,842.601929 632.728271,842.221863 643.682922,842.023804 
	C666.463623,841.611877 689.248657,840.986877 712.028198,841.114319 
	C728.937317,841.208923 745.845459,842.251770 762.744568,843.067627 
	C771.496887,843.490295 780.228760,844.337830 789.422485,844.986938 
M166.760101,1030.999390 
	C183.340378,1031.463135 199.364731,1028.288696 215.101227,1023.437927 
	C250.628952,1012.486389 283.281219,995.417358 313.724701,974.490417 
	C338.382477,957.540588 361.813721,938.800476 385.678284,920.708374 
	C389.963226,917.459961 393.709869,913.501587 397.913513,909.681519 
	C397.085876,909.302185 396.913239,909.145020 396.786621,909.176025 
	C355.526581,919.272827 314.059662,928.607788 273.073883,939.717712 
	C234.779724,950.097961 198.305344,965.213806 166.843445,990.216675 
	C158.291901,997.012695 150.195236,1004.653198 146.082809,1015.283752 
	C143.683029,1021.487122 145.543991,1025.688721 151.853928,1027.755615 
	C156.380402,1029.238403 161.161880,1029.942749 166.760101,1030.999390 
z"/>
<!--End Neck-->
<!--Lower Back-->
<path fill="#231F20" opacity="1.000000" stroke="none" 
	d="
M1384.036377,1030.748291 
	C1379.596313,1040.980469 1375.161743,1050.849854 1370.413452,1060.869629 
	C1369.006348,1060.653931 1367.856567,1060.403564 1366.827759,1059.904419 
	C1342.897217,1048.293945 1319.148804,1036.291260 1295.011841,1025.128296 
	C1271.532593,1014.269287 1247.859741,1003.770508 1223.907349,994.007751 
	C1191.988037,980.997742 1159.939819,968.233582 1127.525757,956.530090 
	C1101.342407,947.076355 1074.656250,938.946045 1047.969360,930.977600 
	C1024.662231,924.018250 1001.086182,917.938599 977.544373,911.794312 
	C965.083801,908.542175 952.443115,905.979797 939.495361,903.061523 
	C939.155823,894.678101 939.076477,886.335388 939.319824,878.002136 
	C939.410461,874.896851 940.255188,871.813599 940.933472,868.351074 
	C951.294006,870.108887 961.610779,871.741638 971.636597,874.450745 
	C1010.462219,884.941528 1049.531982,894.706787 1087.867188,906.784912 
	C1125.473633,918.633545 1162.516235,932.390137 1199.395752,946.390747 
	C1227.891235,957.208618 1255.813721,969.553894 1283.868652,981.507202 
	C1296.844849,987.036072 1309.613892,993.074646 1322.326782,999.193481 
	C1341.508057,1008.425537 1360.566528,1017.913025 1379.647949,1027.351074 
	C1381.226685,1028.131958 1382.582520,1029.363525 1384.036377,1030.748291 
z"/>
<!--End Lower Back-->
<!--Beak-->
<path fill="#F8A92D" opacity="1.000000" stroke="none" 
	d="
M403.673950,151.007904 
	C412.775635,157.803757 421.576996,164.760254 430.678558,171.864410 
	C426.643219,176.346298 422.973907,181.839294 417.842621,184.789520 
	C404.407745,192.513870 390.315552,199.090942 376.521606,206.195663 
	C364.530151,212.371994 352.513885,218.507111 340.653107,224.927399 
	C333.823090,228.624496 327.244019,232.793381 320.631744,236.878998 
	C318.858765,237.974487 317.378357,239.543472 315.304321,241.318604 
	C314.692902,242.078369 314.540802,242.414627 314.388672,242.750854 
	C314.957581,242.536285 315.526489,242.321716 316.095398,242.107147 
	C326.819733,239.050461 337.724579,236.510345 348.234009,232.838531 
	C377.703461,222.542343 406.135651,209.800705 433.636627,195.022522 
	C439.333557,191.961197 444.776611,188.430695 450.408325,185.242981 
	C452.571960,184.018280 454.400146,183.037003 456.324005,186.467682 
	C460.985901,194.780960 466.317261,202.718155 471.340912,210.830383 
	C471.749268,211.489761 471.868408,212.328186 472.161041,213.199844 
	C448.725220,227.492371 424.607117,240.113220 399.262848,250.256653 
	C382.899536,256.805664 366.548462,263.533386 349.773682,268.865143 
	C332.390564,274.390289 314.666687,279.153900 296.784607,282.701935 
	C282.017975,285.631897 272.082947,276.279663 271.113007,261.449890 
	C270.167145,246.987823 276.422729,234.664230 284.392151,223.091263 
	C292.276825,211.641418 303.969604,205.056091 315.773712,198.724350 
	C331.834351,190.109406 348.023956,181.732391 364.222748,173.378448 
	C374.998413,167.821289 385.952606,162.607544 396.676270,156.954391 
	C399.218811,155.614029 401.157318,153.127731 403.673950,151.007904 
z"/>
<!--End Beak-->
</svg>